<svg width="239" height="19" viewBox="0 0 239 19" fill="none" xmlns="http://www.w3.org/2000/svg">
<path d="M19.3307 8.41806C20.8762 9.57917 21.9909 11.2681 21.9909 13.2736C21.9909 16.3083 20.2428 18.7361 16.2145 18.7361H0V0.263889H15.4544C19.4827 0.263889 20.7241 2.16389 20.7241 4.96111C20.7241 6.14861 20.1921 7.3625 19.3307 8.41806ZM6.58714 4.75V6.75556H12.6676C13.3263 6.75556 14.137 6.75556 14.137 5.75278C14.137 4.75 13.3263 4.75 12.6676 4.75H6.58714ZM13.9343 13.7222C14.593 13.7222 15.4038 13.7222 15.4038 12.7458C15.4038 11.7694 14.593 11.7694 13.9343 11.7694H6.58714V13.7222H13.9343Z" fill="#F3F3E9"/>
<path d="M29.3492 12.9306H41.0033V18.7361H22.762V0.263889H29.3492V12.9306Z" fill="#F3F3E9"/>
<path d="M58.7379 18.7361L57.5218 15.4111H49.972L48.7559 18.7361H41.51L48.8572 0.263889H58.6366L65.9838 18.7361H58.7379ZM51.6948 10.6611H55.7991L53.7469 5.01389L51.6948 10.6611Z" fill="#F3F3E9"/>
<path d="M82.7699 0.263889H89.357V18.7361H80.7431L73.0919 7.8375V18.7361H66.5047V0.263889H75.1187L82.7699 11.1625V0.263889Z" fill="#F3F3E9"/>
<path d="M89.8794 9.47361C89.8794 3.06111 93.2236 0 101.027 0C108.121 0 111.82 2.58611 112.098 8.41806H105.359C105.106 6.67639 103.814 5.80556 101.027 5.80556C97.1252 5.80556 96.4665 7.52083 96.4665 9.47361C96.4665 11.4528 97.1505 13.1944 101.027 13.1944C103.814 13.1944 105.106 12.2972 105.359 10.5292H112.098C111.82 16.3875 108.146 19 101.027 19C93.2236 19 89.8794 15.9125 89.8794 9.47361Z" fill="#F3F3E9"/>
<path d="M136.989 0.263889L126.779 8.97222L136.989 18.7361H127.868L122.193 12.8778L119.457 15.2264V18.7361H112.87V0.263889H119.457V7.49444L127.615 0.263889H136.989Z" fill="#F3F3E9"/>
<path d="M164.672 0.263889V18.7361H158.085V9.94861L153.245 18.7361H148.939L144.1 9.94861V18.7361H137.512V0.263889H145.62L151.092 10.8194L156.564 0.263889H164.672Z" fill="#F3F3E9"/>
<path d="M184.441 5.54167H172.28V7.25694H184.441V11.7431H172.28V13.4583H184.441V18.7361H165.693V0.263889H184.441V5.54167Z" fill="#F3F3E9"/>
<path d="M198.363 0.263889C202.645 0.263889 206.673 3.21945 206.673 9.5C206.673 15.7806 202.645 18.7361 198.363 18.7361H185.189V0.263889H198.363ZM196.336 12.9306C197.755 12.9306 200.086 12.9306 200.086 9.5C200.086 6.06944 197.755 6.06944 196.336 6.06944H191.776V12.9306H196.336Z" fill="#F3F3E9"/>
<path d="M214.019 0.263889V18.7361H207.431V0.263889H214.019Z" fill="#F3F3E9"/>
<path d="M231.754 18.7361L230.538 15.4111H222.988L221.772 18.7361H214.526L221.873 0.263889H231.653L239 18.7361H231.754ZM224.711 10.6611H228.815L226.763 5.01389L224.711 10.6611Z" fill="#F3F3E9"/>
</svg>
